HIERARCHY
ROOT Hips
{
	OFFSET 28.832817 438.721039 9.089394
	CHANNELS 6 Xposition Yposition Zposition Zrotation Xrotation Yrotation
	JOINT Chest
	{
		OFFSET -1.534996 78.524017 -11.631012
		CHANNELS 6 Xposition Yposition Zposition Zrotation Xrotation Yrotation
		JOINT Chest2
		{
			OFFSET 0.000000 33.432999 0.000000
			CHANNELS 6 Xposition Yposition Zposition Zrotation Xrotation Yrotation
			JOINT Neck
			{
				OFFSET 0.000000 77.854996 0.000038
				CHANNELS 6 Xposition Yposition Zposition Zrotation Xrotation Yrotation
				JOINT Head
				{
					OFFSET 0.000000 21.739006 0.000000
					CHANNELS 6 Xposition Yposition Zposition Zrotation Xrotation Yrotation
					End Site
					{
						OFFSET 0.000000 105.281982 0.000000
					}
				}
			}
			JOINT LeftCollar
			{
				OFFSET 26.763000 49.383011 16.524048
				CHANNELS 6 Xposition Yposition Zposition Zrotation Xrotation Yrotation
				JOINT LeftShoulder
				{
					OFFSET 42.989998 0.000000 0.000000
					CHANNELS 6 Xposition Yposition Zposition Zrotation Xrotation Yrotation
					JOINT LeftElbow
					{
						OFFSET 0.000000 -102.451019 -0.000038
						CHANNELS 6 Xposition Yposition Zposition Zrotation Xrotation Yrotation
						JOINT LeftWrist
						{
							OFFSET 0.000000 -127.033005 0.000038
							CHANNELS 6 Xposition Yposition Zposition Zrotation Xrotation Yrotation
							End Site
							{
								OFFSET 0.000000 -21.739006 -0.000038
							}
						}
					}
				}
			}
			JOINT RightCollar
			{
				OFFSET -25.345993 51.949997 16.864052
				CHANNELS 6 Xposition Yposition Zposition Zrotation Xrotation Yrotation
				JOINT RightShoulder
				{
					OFFSET -41.441002 0.000000 0.000000
					CHANNELS 6 Xposition Yposition Zposition Zrotation Xrotation Yrotation
					JOINT RightElbow
					{
						OFFSET 0.000000 -101.165009 -0.000038
						CHANNELS 6 Xposition Yposition Zposition Zrotation Xrotation Yrotation
						JOINT RightWrist
						{
							OFFSET 0.000000 -129.378021 0.000038
							CHANNELS 6 Xposition Yposition Zposition Zrotation Xrotation Yrotation
							End Site
							{
								OFFSET 0.000000 -21.739006 -0.000038
							}
						}
					}
				}
			}
		}
	}
	JOINT LeftHip
	{
		OFFSET 21.755981 -26.628990 -0.644951
		CHANNELS 6 Xposition Yposition Zposition Zrotation Xrotation Yrotation
		JOINT LeftKnee
		{
			OFFSET 0.000000 -185.857986 -0.000038
			CHANNELS 6 Xposition Yposition Zposition Zrotation Xrotation Yrotation
			JOINT LeftAnkle
			{
				OFFSET 0.000000 -189.794998 -0.000038
				CHANNELS 6 Xposition Yposition Zposition Zrotation Xrotation Yrotation
				End Site
				{
					OFFSET 0.000000 -0.000012 92.639999
				}
			}
		}
	}
	JOINT RightHip
	{
		OFFSET -20.923996 -25.811996 0.581055
		CHANNELS 6 Xposition Yposition Zposition Zrotation Xrotation Yrotation
		JOINT RightKnee
		{
			OFFSET 0.000000 -186.649994 -0.000038
			CHANNELS 6 Xposition Yposition Zposition Zrotation Xrotation Yrotation
			JOINT RightAnkle
			{
				OFFSET 0.000000 -185.666016 -0.000038
				CHANNELS 6 Xposition Yposition Zposition Zrotation Xrotation Yrotation
				End Site
				{
					OFFSET 0.000000 -0.000010 84.976006
				}
			}
		}
	}
}
MOTION
Frames: 10
Frame Time: 0.041667
-275.797241 441.697418 145.486771 -4.660730 -1.891222 -319.571246 -1.534995 78.523964 -11.631033 -1.812251 16.313991 -5.904640 -0.000020 33.432945 0.000025 0.108637 -5.773429 1.484925 -0.000022 77.855011 0.000044 5.642186 12.159953 1.579385 -0.000014 21.739040 -0.000038 1.035403 -1.288914 -0.545967 26.762960 49.382954 16.524055 3.041713 2.044374 0.152926 42.990028 0.000002 0.000008 213.797571 -123.402640 131.386011 -0.000005 -102.451065 -0.000015 -50.857619 -54.546833 -45.459601 0.000020 -127.033012 0.000088 -9.153655 -24.182917 144.587714 -25.346029 51.949993 16.864029 -12.504620 8.592249 7.014243 -41.440998 -0.000026 0.000002 -108.321363 -50.312604 -22.495655 -0.000082 -101.164970 -0.000123 59.426396 -65.031945 1.382209 -0.000067 -129.378006 -0.000019 44.228081 1.143464 74.660081 21.755966 -26.628962 -0.644976 13.714258 -15.692933 -333.621410 -0.000015 -185.857986 -0.000010 -6.018620 56.588401 346.210459 -0.000017 -189.795013 -0.000052 247.367950 -216.159505 191.079678 -20.924015 -25.811993 0.581045 179.384059 -162.780401 158.064347 -0.000071 -186.649963 -0.000012 185.558468 -217.686953 -171.935655 0.000007 -185.666031 -0.000039 4.714804 8.751332 -4.458802 
-270.602478 446.676910 151.907333 -3.636723 -2.428058 -322.237315 -1.534995 78.523994 -11.631006 -2.170845 15.349054 -8.759450 -0.000025 33.433041 0.000003 0.191358 -5.366174 2.647056 0.000050 77.855057 0.000087 6.242065 12.380106 2.235201 -0.000014 21.739025 0.000027 0.548908 -1.081343 0.095864 26.763067 49.383030 16.524084 3.632894 0.491914 2.125459 42.990051 -0.000021 0.000006 216.416320 -121.977726 134.278773 -0.000032 -102.451027 -0.000051 -56.135590 -57.722967 -47.979600 0.000000 -127.032990 0.000055 -12.777515 -23.900553 146.454706 -25.345919 51.949997 16.864071 -12.970595 8.809966 6.121617 -41.440987 -0.000044 -0.000008 -118.996853 -46.762193 -31.268784 0.000064 -101.164978 -0.000108 48.952826 -68.324814 -10.816651 -0.000021 -129.378006 0.000044 51.461855 4.011900 70.007151 21.755993 -26.629005 -0.644934 13.024456 -13.009478 -338.283506 0.000005 -185.858002 -0.000010 -7.236480 48.513724 351.140654 0.000023 -189.794983 -0.000011 261.295772 -211.287503 183.963386 -20.923985 -25.811987 0.581063 180.068867 -166.711571 161.975546 -0.000076 -186.649933 -0.000018 187.218941 -214.292568 -173.568767 -0.000023 -185.666016 -0.000040 4.992084 9.420005 -5.112917 
-265.824341 451.388824 157.004181 -2.745855 -2.840908 -324.848824 -1.534957 78.523964 -11.631004 -0.184369 12.898660 -35.675622 0.000023 33.432934 0.000013 -0.488633 -4.415821 28.219891 0.000017 77.855034 0.000023 6.688226 12.395045 2.644892 -0.000043 21.739010 0.000009 0.272523 -0.886439 0.345863 26.763027 49.383053 16.524021 3.054932 0.808988 1.344909 42.989956 0.000038 -0.000036 224.721488 -120.747103 142.220084 0.000009 -102.450989 -0.000043 -59.465635 -61.143922 -49.924257 -0.000005 -127.032959 0.000062 -15.060323 -24.188469 149.532621 -25.345966 51.949944 16.864017 -12.608038 9.205595 5.173967 -41.441044 0.000023 -0.000089 -127.668366 -42.363367 -37.564254 0.000041 -101.165047 -0.000094 32.750060 -68.877854 -27.466136 -0.000134 -129.377991 0.000055 55.111864 2.573295 66.435187 21.756035 -26.628998 -0.644948 12.660018 -11.344843 -340.388898 0.000006 -185.857986 -0.000027 -6.293411 42.175756 352.589610 -0.000034 -189.794998 -0.000010 264.609834 -204.474840 180.332458 -20.923960 -25.812033 0.581058 180.122470 -169.581644 163.746737 -0.000032 -186.649948 0.000009 187.767761 -212.150730 -173.396906 0.000020 -185.666031 -0.000034 3.868971 11.136832 -5.756212 
-261.125763 455.753052 161.126328 -2.081176 -3.245819 -328.105759 -1.535021 78.524063 -11.631006 -0.434570 12.633313 -32.311972 -0.000029 33.433044 0.000004 -0.156815 -4.296291 25.214917 -0.000026 77.855103 0.000050 6.286062 12.406980 2.973483 0.000032 21.739006 0.000009 0.240451 -0.631280 0.385881 26.762991 49.383049 16.524067 0.713027 2.466390 -0.341427 42.989998 0.000024 0.000014 236.521063 -120.249196 152.181205 0.000005 -102.451050 -0.000009 -60.620845 -65.133032 -50.343945 -0.000018 -127.033043 0.000032 -16.619317 -24.580486 151.895894 -25.345976 51.950020 16.864063 -12.709738 11.717519 4.053866 -41.441025 0.000028 -0.000049 -135.314572 -36.597584 -44.462636 0.000031 -101.164963 -0.000096 17.312200 -65.984449 -44.652410 -0.000041 -129.377975 0.000037 56.142857 0.870163 64.709035 21.755981 -26.628967 -0.644939 12.826056 -9.578347 -343.011144 0.000012 -185.857986 -0.000040 -7.136210 36.919983 353.648125 -0.000026 -189.795044 -0.000039 262.340790 -198.796003 176.195917 -20.924011 -25.811886 0.581074 179.968805 -172.090851 166.095379 -0.000048 -186.650085 -0.000043 188.897829 -209.685633 -176.160004 0.000008 -185.666031 -0.000019 0.198687 14.935817 -3.766709 
-256.124023 459.555908 164.522888 -1.592949 -3.720431 -331.799388 -1.535000 78.523964 -11.631041 -0.640764 12.513802 -28.528066 0.000041 33.432991 0.000011 -0.203895 -4.240636 22.299989 -0.000038 77.855080 0.000064 6.175672 12.257695 3.113103 0.000011 21.739021 -0.000011 0.181753 -0.446729 0.653381 26.762953 49.383068 16.524050 0.408146 3.133004 -1.367694 42.990032 0.000032 -0.000033 243.931190 -120.394624 158.763021 -0.000036 -102.451019 -0.000014 -60.333622 -68.836299 -48.826246 -0.000016 -127.032959 0.000033 -17.677660 -24.758799 153.006770 -25.346012 51.950054 16.864050 -12.847368 9.213200 3.871629 -41.441021 0.000063 -0.000073 -137.135049 -34.100317 -44.791937 -0.000039 -101.164970 -0.000083 5.207173 -61.390656 -58.880657 -0.000072 -129.377991 0.000105 57.574649 1.226238 63.828405 21.755999 -26.628998 -0.644988 12.953833 -7.719975 -345.579158 0.000012 -185.857941 0.000000 -7.357820 33.427373 350.449712 -0.000000 -189.795013 -0.000044 257.451686 -198.603378 172.877907 -20.924006 -25.812037 0.581036 179.700119 -174.356548 168.007805 -0.000043 -186.650024 -0.000024 189.615914 -207.102004 -179.778884 0.000013 -185.665985 -0.000031 -0.771993 17.971192 0.009897 
-250.778061 462.718140 167.356873 -1.430444 -4.186551 -335.678690 -1.534973 78.524025 -11.631006 -0.560837 12.307805 -24.593334 -0.000024 33.433052 0.000037 -0.471639 -4.188444 19.276042 -0.000011 77.855026 0.000052 6.013504 11.827693 3.283532 -0.000001 21.739042 0.000027 0.241382 -0.362958 0.945013 26.762993 49.383018 16.524052 1.623959 2.818903 -1.272889 42.989960 -0.000058 0.000010 247.209818 -120.458760 162.762643 -0.000026 -102.451027 -0.000089 -59.100800 -71.580314 -46.688585 -0.000005 -127.032997 0.000072 -17.666691 -23.993071 155.143321 -25.345985 51.949974 16.864052 -13.449043 8.415246 2.873922 -41.441010 0.000019 -0.000029 -139.173710 -31.727035 -47.368632 0.000039 -101.165024 -0.000095 -2.448557 -55.868615 -67.350105 -0.000045 -129.377991 0.000134 59.323670 1.879197 61.396400 21.756012 -26.628975 -0.644937 12.949867 -5.712140 -348.595042 0.000000 -185.857971 -0.000022 -8.430217 31.192412 354.236505 -0.000006 -189.795059 -0.000046 254.665133 -195.629035 169.544351 -20.923977 -25.811930 0.581069 179.487427 -176.336387 169.814417 -0.000038 -186.650009 -0.000024 190.207299 -204.384190 -184.401679 -0.000033 -185.666061 -0.000025 -2.690009 21.178564 5.115551 
-245.348206 465.475037 169.740387 -1.296699 -4.572681 -338.832571 -1.535017 78.523972 -11.630978 -0.238812 12.130879 -21.679505 -0.000003 33.432980 0.000010 -0.444004 -4.153910 16.686432 0.000001 77.855011 0.000047 5.376917 11.161959 3.579035 -0.000011 21.738907 -0.000006 0.324045 -0.167183 1.309761 26.763010 49.382957 16.524040 1.991123 2.986670 -1.311160 42.990067 -0.000024 -0.000021 251.423935 -120.809982 168.166661 0.000018 -102.451012 -0.000041 -58.145216 -73.358725 -45.175984 -0.000021 -127.033035 0.000048 -24.970596 14.138077 300.888356 -25.345974 51.949974 16.864031 -14.227978 8.724283 1.712859 -41.441021 -0.000019 0.000000 -141.444161 -29.084158 -51.797798 0.000014 -101.165016 -0.000111 -5.252535 -50.226131 -69.821124 0.000013 -129.377991 0.000036 60.632354 1.246754 58.461187 21.755970 -26.628981 -0.644914 12.671085 -3.339379 -352.475764 -0.000033 -185.857910 -0.000021 -9.975023 29.256572 354.036490 -0.000014 -189.795044 -0.000049 252.225936 -199.422823 169.672172 -20.924004 -25.811949 0.581107 179.002538 -177.883083 170.774318 0.000006 -186.650009 0.000058 190.932337 -201.875721 -190.863476 0.000014 -185.665985 -0.000014 -6.205468 24.246589 12.321187 
-240.263199 468.088013 171.515060 -1.057897 -4.858860 -341.096068 -1.535003 78.523979 -11.630976 -0.111150 12.055902 -19.429481 0.000006 33.432983 -0.000004 -0.367510 -4.161595 14.406539 0.000021 77.855026 0.000025 5.142881 10.556321 3.940500 0.000010 21.738941 -0.000016 0.315156 -0.056156 1.560328 26.763027 49.382988 16.524027 1.286053 3.637522 -2.067120 42.990028 0.000054 -0.000002 256.933466 -121.626107 173.851414 -0.000003 -102.450958 -0.000048 -55.017806 -74.952611 -41.447114 -0.000046 -127.032974 0.000055 -40.992463 -3.196015 332.000988 -25.345938 51.950005 16.864044 -14.633827 7.515693 2.000760 -41.440956 0.000022 -0.000042 -142.274015 -27.182225 -53.414613 0.000005 -101.164978 -0.000112 -6.620459 -44.985060 -71.457733 -0.000137 -129.378006 0.000029 60.659163 0.752579 57.077446 21.755972 -26.629076 -0.644930 12.063691 -0.945321 -356.269989 0.000031 -185.858002 -0.000014 -12.372170 26.359899 357.836151 0.000005 -189.795013 -0.000032 250.864488 -201.243533 169.276512 -20.924007 -25.812027 0.581092 178.289630 -178.947760 171.234427 -0.000012 -186.650085 -0.000036 191.407732 -199.939363 -196.461813 -0.000000 -185.666107 -0.000027 -9.737605 26.714120 18.925875 
-235.851273 470.567291 172.645798 -1.037326 -5.154660 -342.085380 -1.534999 78.523933 -11.630973 0.161258 12.012506 -18.421857 0.000013 33.433071 0.000002 -0.277689 -4.147682 12.575861 0.000002 77.854965 0.000039 5.486425 10.118433 4.225480 -0.000011 21.738989 0.000003 0.185065 -0.148335 1.511540 26.763008 49.382935 16.524036 0.521843 4.214432 -2.957298 42.989998 -0.000081 0.000034 261.227688 -122.385051 177.906333 0.000053 -102.450958 -0.000020 -46.280884 -76.170741 -32.244456 0.000002 -127.033051 0.000025 -42.360666 -3.827539 333.725939 -25.345984 51.949886 16.864050 -14.375067 6.382372 2.033781 -41.440941 0.000052 -0.000011 -143.533570 -25.869584 -54.731289 0.000044 -101.165001 -0.000078 -7.590528 -39.965722 -71.426348 -0.000054 -129.377914 -0.000001 60.261639 -0.774857 55.333159 21.755981 -26.628931 -0.644910 11.580295 0.656529 -359.220603 0.000001 -185.858017 -0.000027 -14.075939 23.939188 360.957630 -0.000030 -189.794983 -0.000036 249.724393 -202.773918 168.858928 -20.923979 -25.811996 0.581102 177.896785 -179.679314 171.157984 -0.000013 -186.650055 0.000010 191.554595 -198.366056 -200.720968 -0.000012 -185.666016 -0.000000 -12.529157 28.913167 23.942678 
-231.986923 472.628174 173.399414 -1.151383 -5.577948 -342.606387 -1.535021 78.524010 -11.631037 0.481290 11.914064 -17.891503 -0.000001 33.432964 -0.000006 -0.219243 -4.052858 11.310776 -0.000038 77.855011 0.000050 5.866975 10.059077 4.096363 -0.000011 21.739044 -0.000006 -0.031310 -0.418463 1.586470 26.762980 49.383034 16.524069 -0.290578 4.571197 -3.971833 42.990044 -0.000049 -0.000015 264.202645 -122.799889 180.785873 0.000012 -102.451019 -0.000020 -33.905472 -76.024472 -19.542447 -0.000049 -127.033005 0.000030 -43.977085 -4.802815 334.747134 -25.346004 51.950020 16.864056 -14.174454 5.707375 1.834799 -41.440994 0.000024 -0.000023 -144.840227 -24.580046 -56.345775 0.000000 -101.165146 -0.000072 -7.238395 -35.048296 -73.956523 0.000015 -129.377930 0.000019 60.121026 0.601329 55.484523 21.755951 -26.628988 -0.644963 11.383628 1.821321 -361.362633 0.000012 -185.858032 -0.000007 -15.101323 22.434446 362.962072 0.000007 -189.794983 -0.000021 248.543426 -203.832543 168.385022 -20.924023 -25.811998 0.581045 177.713872 -180.326843 171.208595 -0.000016 -186.650009 0.000010 191.664643 -197.135857 -204.368221 -0.000006 -185.666031 -0.000029 -14.956769 30.870396 28.153620 
